<?xml version="1.0" standalone="no"?>
<!DOCTYPE svg PUBLIC "-//W3C//DTD SVG 20010904//EN"
 "http://www.w3.org/TR/2001/REC-SVG-20010904/DTD/svg10.dtd">
<svg version="1.0" xmlns="http://www.w3.org/2000/svg"
 width="266.000000pt" height="262.000000pt" viewBox="0 0 266.000000 262.000000"
 preserveAspectRatio="xMidYMid meet">

<g transform="translate(0.000000,262.000000) scale(0.100000,-0.100000)"
fill="#000000" stroke="none">
<path d="M829 2231 c-16 -13 -24 -33 -28 -67 l-6 -49 -83 -8 c-122 -11 -190
-51 -244 -146 l-33 -56 0 -645 0 -645 27 -46 c34 -57 87 -105 145 -130 41 -17
73 -19 392 -19 336 0 348 1 369 20 27 26 28 70 3 101 l-19 24 -345 5 -345 5
-27 25 c-57 53 -55 30 -55 668 l0 589 23 34 c30 45 86 71 145 67 l47 -3 5 -47
c7 -61 32 -88 81 -88 47 0 69 28 77 95 l5 45 147 0 147 0 5 -45 c8 -67 30 -95
77 -95 49 0 74 27 81 88 l5 47 151 3 151 3 5 -51 c6 -64 29 -90 78 -90 49 0
68 23 72 85 l3 50 52 3 c61 4 116 -19 147 -61 20 -27 21 -44 26 -322 5 -270 6
-295 24 -314 26 -29 76 -28 104 2 22 23 22 29 22 316 0 189 -4 307 -11 331
-17 58 -78 130 -136 162 -43 24 -69 31 -135 35 -46 3 -86 11 -90 17 -4 6 -8
30 -8 53 0 47 -25 73 -71 73 -44 0 -69 -29 -76 -88 l-6 -53 -151 3 -151 3 -6
49 c-8 72 -62 107 -119 76 -21 -11 -40 -60 -40 -101 l0 -29 -150 0 -150 0 0
29 c0 93 -69 142 -131 92z"/>
<path d="M843 1560 c-17 -10 -34 -28 -38 -40 -18 -58 52 -118 104 -89 55 31
53 112 -5 135 -27 11 -35 10 -61 -6z"/>
<path d="M1151 1559 c-26 -16 -31 -25 -31 -58 0 -31 6 -44 26 -60 15 -12 34
-21 44 -21 33 0 70 39 70 73 -1 64 -56 98 -109 66z"/>
<path d="M1462 1560 c-37 -23 -48 -52 -32 -90 25 -60 103 -62 133 -3 16 31 10
59 -19 84 -31 26 -50 28 -82 9z"/>
<path d="M1771 1559 c-26 -16 -31 -25 -31 -58 0 -31 6 -44 26 -60 15 -12 34
-21 44 -21 10 0 29 9 44 21 20 16 26 29 26 59 0 40 -10 53 -51 69 -21 7 -33 5
-58 -10z"/>
<path d="M821 1234 c-12 -15 -21 -34 -21 -44 0 -10 9 -29 21 -44 16 -20 29
-26 59 -26 44 0 70 26 70 70 0 44 -26 70 -70 70 -30 0 -43 -6 -59 -26z"/>
<path d="M1137 1242 c-23 -25 -22 -85 1 -105 25 -23 85 -22 105 1 23 25 22 85
-1 105 -25 23 -85 22 -105 -1z"/>
<path d="M1441 1234 c-12 -15 -21 -34 -21 -44 0 -10 9 -29 21 -44 16 -20 29
-26 60 -26 33 0 42 5 58 31 15 25 17 38 10 57 -22 57 -92 71 -128 26z"/>
<path d="M1756 1241 c-23 -25 -23 -76 -1 -101 24 -26 86 -27 108 -2 23 25 22
85 -1 105 -25 23 -85 22 -106 -2z"/>
<path d="M2121 1063 c-31 -38 -79 -104 -181 -248 -111 -157 -176 -240 -190
-243 -8 -1 -74 54 -147 123 -137 130 -162 144 -205 111 -33 -25 -39 -60 -15
-97 30 -47 244 -252 284 -273 39 -20 112 -21 156 -2 45 19 62 40 261 318 187
262 198 286 156 328 -12 12 -33 20 -54 20 -28 0 -41 -7 -65 -37z"/>
<path d="M821 924 c-24 -30 -26 -43 -10 -77 11 -25 47 -47 75 -47 26 0 64 47
64 80 0 67 -88 97 -129 44z"/>
<path d="M1142 934 c-33 -23 -31 -86 4 -113 15 -12 34 -21 44 -21 10 0 29 9
44 21 20 16 26 29 26 59 0 44 -26 70 -70 70 -14 0 -36 -7 -48 -16z"/>
</g>
</svg>
